<?xml version="1.0" encoding="UTF-8" standalone="no"?><!DOCTYPE svg PUBLIC "-//W3C//DTD SVG 1.1//EN" "http://www.w3.org/Graphics/SVG/1.1/DTD/svg11.dtd"><svg width="100%" height="100%" viewBox="0 0 24 24" version="1.1" xmlns="http://www.w3.org/2000/svg" xmlns:xlink="http://www.w3.org/1999/xlink" xml:space="preserve" style="fill-rule:evenodd;clip-rule:evenodd;stroke-linejoin:round;stroke-miterlimit:1.41421;"><path d="M13.761,0.13c-1.168,-0.173 -2.354,-0.173 -3.522,0l-0.523,1.929c-1.108,0.255 -2.167,0.693 -3.131,1.297l-1.733,-0.994c-0.948,0.703 -1.787,1.542 -2.49,2.49l0.994,1.733c-0.604,0.964 -1.042,2.023 -1.297,3.131l-1.929,0.523c-0.173,1.168 -0.173,2.354 0,3.522l1.929,0.523c0.255,1.108 0.693,2.167 1.297,3.131l-0.994,1.733c0.703,0.948 1.542,1.787 2.49,2.49l1.733,-0.994c0.964,0.604 2.023,1.042 3.131,1.297l0.523,1.929c1.168,0.173 2.354,0.173 3.522,0l0.523,-1.929c1.108,-0.255 2.167,-0.693 3.131,-1.297l1.733,0.994c0.948,-0.703 1.787,-1.542 2.49,-2.49l-0.994,-1.733c0.604,-0.964 1.042,-2.023 1.297,-3.131l1.929,-0.523c0.173,-1.168 0.173,-2.354 0,-3.522l-1.929,-0.523c-0.255,-1.108 -0.693,-2.167 -1.297,-3.131l0.994,-1.733c-0.703,-0.948 -1.542,-1.787 -2.49,-2.49l-1.733,0.994c-0.964,-0.604 -2.023,-1.042 -3.131,-1.297l-0.523,-1.929Zm-1.761,6.203c3.128,0 5.667,2.539 5.667,5.667c0,3.128 -2.539,5.667 -5.667,5.667c-3.128,0 -5.667,-2.539 -5.667,-5.667c0,-3.128 2.539,-5.667 5.667,-5.667Z" style="fill:#007900;"/></svg>