<?xml version="1.0" encoding="UTF-8" standalone="no"?><!DOCTYPE svg PUBLIC "-//W3C//DTD SVG 1.1//EN" "http://www.w3.org/Graphics/SVG/1.1/DTD/svg11.dtd"><svg width="100%" height="100%" viewBox="0 0 24 24" version="1.1" xmlns="http://www.w3.org/2000/svg" xmlns:xlink="http://www.w3.org/1999/xlink" xml:space="preserve" style="fill-rule:evenodd;clip-rule:evenodd;stroke-linejoin:round;stroke-miterlimit:1.41421;"><g><path d="M14.373,21.92c-0.03,0.007 -0.06,0.014 -0.089,0.021l-0.523,1.929c-1.168,0.173 -2.354,0.173 -3.522,0l-0.523,-1.929c-1.108,-0.255 -2.167,-0.693 -3.131,-1.297l-1.733,0.994c-0.948,-0.703 -1.787,-1.542 -2.49,-2.49l0.994,-1.733c-0.604,-0.964 -1.042,-2.023 -1.297,-3.131l-1.929,-0.523c-0.173,-1.168 -0.173,-2.354 0,-3.522l1.929,-0.523c0.255,-1.108 0.693,-2.167 1.297,-3.131l-0.994,-1.733c0.703,-0.948 1.542,-1.787 2.49,-2.49l1.733,0.994c0.445,-0.279 0.909,-0.522 1.389,-0.728l-1.055,2.967l2.676,1.273l0,0c-1.927,0.905 -3.262,2.864 -3.262,5.132c0,1.887 0.925,3.56 2.345,4.59l0,0l0.229,3.217l5.466,2.113Zm6.333,-4.605c-0.021,0.033 -0.041,0.067 -0.062,0.1l0.994,1.733c-0.703,0.948 -1.542,1.787 -2.49,2.49l-1.733,-0.994c-0.776,0.486 -1.613,0.865 -2.488,1.127l-3.945,-1.964l1.704,-2.181c1.234,-0.149 2.346,-0.696 3.205,-1.508l0,0l3.431,-0.775l1.384,1.972Zm-10.884,-15.648l0.417,-1.537c1.168,-0.173 2.354,-0.173 3.522,0l0.523,1.929c1.108,0.255 2.167,0.693 3.131,1.297l1.733,-0.994c0.948,0.703 1.787,1.542 2.49,2.49l-0.994,1.733c0.604,0.964 1.042,2.023 1.297,3.131l1.929,0.523c0.173,1.168 0.173,2.354 0,3.522l-1.929,0.523c-0.149,0.65 -0.362,1.283 -0.634,1.89l-0.776,-2.458l-3.032,-0.342l0,0c0.11,-0.44 0.168,-0.9 0.168,-1.374c0,-2.895 -2.176,-5.287 -4.981,-5.626l-2.263,-2.135l-0.601,-2.572Z" style="fill:#bc0000;"/></g></svg>